<svg width="800" height="17" viewBox="0 0 800 17" xmlns="http://www.w3.org/2000/svg">
  <path fill-rule="evenodd" clip-rule="evenodd" d="M38.6851 10.4827L38.6963 10.4945L35.923 10.4945L35.9338 10.4827L38.6851 10.4827ZM39.598 6.55397L35.0129 6.55397L37.3079 8.94128L35.9338 10.4827L-5.69766e-07 10.4827L-1.48619e-06 -6.33678e-07L800 -7.05719e-05L800 10.4861L686.715 10.4861L683.527 14.0087L678.143 14.0087L671.49 6.55392L671.48 6.56394L671.472 6.55392L667.651 10.4826L606.983 10.4826L605.609 8.94123L607.904 6.55392L603.319 6.55392L605.609 8.94123L604.232 10.4826L570.185 10.4827L568.229 12.4189L564.377 16.437L561.807 13.9494L548.788 13.9542L546.701 13.9542L541.426 8.32022L527.413 8.32022L524.397 11.3821L493.455 11.3656L491.05 8.94298L487.447 12.7013L486.242 11.3656L417.425 11.3822L412.108 17L402.086 6.55394L402.084 6.55917L402.079 6.55394L398.307 10.4862L396.706 10.4862L395.831 9.57403L397.221 8.13022L394.448 8.13022L395.831 9.57403L394.972 10.4678L362.5 10.4818L362.5 10.4862L356.654 10.4844L353.334 10.4862L353.334 10.4835L289.195 10.4679L288.336 9.57404L289.719 8.13023L286.946 8.13023L288.336 9.57404L287.461 10.4862L285.86 10.4862L282.088 6.55395L282.083 6.55918L282.081 6.55395L272.059 17L266.742 11.3822L229.592 11.3656L228.387 12.7013L224.783 8.943L222.379 11.3386L118.52 11.3552L115.504 8.32026L101.491 8.32026L96.2167 13.9817L81.1096 13.9769L78.5409 16.437L74.688 12.4189L72.7321 10.4827L38.6851 10.4827L37.3079 8.94128L39.598 6.55397ZM657.657 8.81092L658.38 8.81092L658.38 6.55392L657.657 6.55392L657.657 8.81092ZM656.564 8.81092L657.285 8.81092L657.285 6.55392L656.564 6.55392L656.564 8.81092ZM651.513 8.81092L652.234 8.81092L652.234 6.55392L651.513 6.55392L651.513 8.81092ZM642.847 8.81092L645.012 8.81092L645.012 6.55392L642.847 6.55392L642.847 8.81092ZM556.386 11.6475L557.108 11.6475L557.108 10.8958L556.386 10.8958L556.386 11.6475ZM553.619 11.6475L554.341 11.6475L554.341 9.39098L553.619 9.39098L553.619 11.6475ZM548.021 11.6475L548.743 11.6475L548.743 10.8958L548.021 10.8958L548.021 11.6475ZM548.021 10.1423L548.743 10.1423L548.743 9.39098L548.021 9.39098L548.021 10.1423ZM94.1738 11.6476L94.8963 11.6476L94.8963 10.8958L94.1738 10.8958L94.1738 11.6476ZM94.1738 10.1423L94.8963 10.1423L94.8963 9.39102L94.1738 9.39102L94.1738 10.1423ZM88.5759 11.6476L89.2988 11.6476L89.2988 9.39102L88.5759 9.39102L88.5759 11.6476ZM85.8088 11.6476L86.5317 11.6476L86.5317 10.8958L85.8088 10.8958L85.8088 11.6476ZM606.994 10.4944L604.221 10.4944L604.232 10.4826L606.983 10.4826L606.994 10.4944ZM485.741 14.4245L487.447 12.7013L489.156 14.4245L485.741 14.4245ZM226.677 14.4245L228.387 12.7013L230.093 14.4245L226.677 14.4245Z" />
</svg>
